<?xml version="1.0" encoding="utf-8"?>
<!-- Generator: Adobe Illustrator 16.0.0, SVG Export Plug-In . SVG Version: 6.00 Build 0)  -->
<!DOCTYPE svg PUBLIC "-//W3C//DTD SVG 1.1//EN" "http://www.w3.org/Graphics/SVG/1.1/DTD/svg11.dtd">
<svg version="1.1" id="Layer_1" xmlns="http://www.w3.org/2000/svg" xmlns:xlink="http://www.w3.org/1999/xlink" x="0px" y="0px"
	 width="24.981px" height="32.358px" viewBox="0 0 24.981 32.358" enable-background="new 0 0 24.981 32.358" xml:space="preserve">
<path fill="#44999A" d="M24.332,0.045c0,0-5.875-0.938-15.938,5.688s-8.5,17.312-8,19.562s0.875,7.062,0.875,7.062l9.812-4.188
	c2.251-0.873,4.989-2.069,9.062-5.25C27.417,17.242,24.332,0.045,24.332,0.045z M15.769,16.179c0,0-3.875,1.492-6.375,1.554
	l-2.25,4.25l4.187,0.75c0,0-3.494,1.332-5.187,1.188l-2.5,3l1-3.688c0,0-1.875-4-1.812-5.438l2.625,3.375l2.438-4.438
	c0,0-0.812-5.25-0.562-6.438l1.875,3.5l4.25-4.812c0,0,0.312-2.688,0.688-3.438l1,1.75l4.125-3.125l-3.062,3.75l3.625,0.688
	c0,0-3.25,1.312-5.25,1.062l-3.75,5.312L15.769,16.179z"/>
</svg>
